<?xml version="1.0" standalone="no"?><!DOCTYPE svg PUBLIC "-//W3C//DTD SVG 1.1//EN" "http://www.w3.org/Graphics/SVG/1.1/DTD/svg11.dtd"><svg t="1736751277051" class="icon" viewBox="0 0 1024 1024" version="1.1" xmlns="http://www.w3.org/2000/svg" p-id="33436" width="128" height="128" xmlns:xlink="http://www.w3.org/1999/xlink"><path d="M512 736c-105.888 0-192-86.112-192-192s86.112-192 192-192 192 86.112 192 192-86.112 192-192 192z m0-320c-70.592 0-128 57.408-128 128s57.408 128 128 128 128-57.408 128-128-57.408-128-128-128z m352 480H160c-52.928 0-96-43.072-96-96V288c0-52.928 43.072-96 96-96h96a32 32 0 0 1 0 64H160c-17.632 0-32 14.368-32 32v512c0 17.664 14.368 32 32 32h704a32 32 0 0 0 32-32V288c0-17.632-14.336-32-32-32H512a32 32 0 0 1 0-64h352c52.928 0 96 43.072 96 96v512c0 52.928-43.072 96-96 96z m-96-560a48 48 0 1 0 96.032-0.032A48 48 0 0 0 768 336zM480 128a32 32 0 0 1-32 32h-128a32 32 0 0 1 0-64h128a32 32 0 0 1 32 32z" p-id="33437" fill="#ffffff"></path></svg>