<?xml version="1.0" standalone="no"?><!DOCTYPE svg PUBLIC "-//W3C//DTD SVG 1.1//EN" "http://www.w3.org/Graphics/SVG/1.1/DTD/svg11.dtd"><svg t="1736751328353" class="icon" viewBox="0 0 1024 1024" version="1.1" xmlns="http://www.w3.org/2000/svg" p-id="36625" xmlns:xlink="http://www.w3.org/1999/xlink" width="128" height="128"><path d="M734.464 433.5616c115.9168 21.248 196.6848 128.512 186.2144 247.2704-10.4448 118.784-108.672 209.8944-226.4576 210.048a226.3552 226.3552 0 0 1-182.1184-92.16c-61.2352 82.56-169.2672 113.8176-264.3712 76.4672-95.104-37.3248-154.0608-134.144-144.2816-236.9536 9.7792-102.784 85.888-186.4192 186.2912-204.7232-19.9936-92.1344 17.4848-187.2896 94.6176-240.2048a225.3568 225.3568 0 0 1 255.4368 0c77.1328 52.9152 114.6112 148.0704 94.6176 240.2048l0.0512 0.0512z m-40.2432 88.576a227.328 227.328 0 0 1-136.6016 87.5776v50.688c0 76.3904 61.1584 138.2912 136.6016 138.2912 75.4176 0 136.576-61.9008 136.576-138.2656 0-76.3648-61.1584-138.2912-136.576-138.2912z m-227.6608 87.5776a227.328 227.328 0 0 1-136.576-87.552c-75.4432 0-136.6016 61.9008-136.6016 138.24 0 76.3904 61.184 138.2912 136.6016 138.2912 75.4432 0 136.576-61.9008 136.576-138.2656v-50.688z m45.5424-364.1088a136.2944 136.2944 0 0 0-118.272 69.12 139.776 139.776 0 0 0 0 138.2912 136.2944 136.2944 0 0 0 118.272 69.12c75.4176 0 136.576-61.9008 136.576-138.24 0-76.3904-61.1584-138.2912-136.576-138.2912z" fill="#ffffff" p-id="36626"></path></svg>