<?xml version="1.0" standalone="no"?><!DOCTYPE svg PUBLIC "-//W3C//DTD SVG 1.1//EN" "http://www.w3.org/Graphics/SVG/1.1/DTD/svg11.dtd"><svg t="1736751338655" class="icon" viewBox="0 0 1024 1024" version="1.1" xmlns="http://www.w3.org/2000/svg" p-id="37660" xmlns:xlink="http://www.w3.org/1999/xlink" width="128" height="128"><path d="M357.888 76.288c-114.176 0-206.336 92.672-206.336 206.336s92.672 206.336 206.336 206.336 206.336-92.672 206.336-206.336c0-113.664-92.672-206.336-206.336-206.336z m0 349.184C279.04 425.472 215.04 361.472 215.04 282.624c0-78.848 64-142.848 142.848-142.848 78.848 0 142.848 64 142.848 142.848-0.512 78.848-64 142.848-142.848 142.848zM819.2 489.984c-81.408 0-148.48 66.048-148.48 148.48 0 81.408 66.048 148.48 148.48 148.48s148.48-66.048 148.48-148.48c0-81.92-66.048-148.48-148.48-148.48z m0 240.128c-50.688 0-91.648-40.96-91.648-91.648 0-50.688 40.96-91.648 91.648-91.648s91.648 40.96 91.648 91.648c0.512 50.688-40.448 91.648-91.648 91.648zM197.12 692.736c-70.656 0-127.488 56.832-127.488 127.488s56.832 127.488 127.488 127.488 127.488-56.832 127.488-127.488c0-70.656-56.832-127.488-127.488-127.488z m-1.536 198.144c-38.912 0-70.656-31.744-70.656-70.656 0-39.424 31.744-70.656 70.656-70.656 38.912 0 70.656 31.744 70.656 70.656S234.496 890.88 195.584 890.88zM345.6 778.752l12.8 41.984 296.96-91.136-12.8-41.984zM200.704 660.992l43.008 11.776 40.96-151.552-43.008-11.776zM569.856 408.576l-24.576 35.84 130.56 87.552 24.576-36.352z" fill="#ffffff" p-id="37661"></path></svg>